#!OML:ASF E:\inclinewalkrobotboard\Project 1\Capture day 1\Session 1\subject1.ASF
:FULLY-SPECIFIED
:DEGREES
142
root 8.08346 16.4359 35.2898 -170.843 3.38584 177.52
lowerback 0.668116 3.21682 -5.94913
upperback 4.02223 4.54915 0.395534
thorax 3.30506 2.15189 3.8179
lowerneck -5.73004 0.753171 -3.22695
upperneck 30.0045 -3.02736 5.26165
head 10.6464 -2.20241 1.94479
rclavicle -3.53837e-014 -1.31198e-014
rhumerus -27.5677 -19.7305 -81.9865
rradius 28.6706
rwrist 12.8531
rhand -15.7692 -39.2144
rfingers 7.12502
rthumb 10.4228 -68.936
lclavicle -3.53837e-014 -1.31198e-014
lhumerus -36.7746 14.6392 78.7477
lradius 16.6251
lwrist -32.6774
lhand -21.66 -18.2402
lfingers 7.12502
lthumb 4.73704 11.6868
rfemur -1.98316 2.68235 22.0173
rtibia 12.4953
rfoot -22.2369 0.327034
rtoes -12.7325
lfemur -52.3695 -6.4747 -16.4102
ltibia 40.0929
lfoot -21.0775 6.84944
ltoes -62.1428
143
root 8.08111 16.4179 35.1371 -170.95 3.80114 177.543
lowerback 0.593191 3.34131 -5.80248
upperback 4.19456 4.74246 0.276301
thorax 3.5276 2.24966 3.62769
lowerneck -5.56003 0.767527 -3.26305
upperneck 29.4816 -2.8399 5.18582
head 10.4046 -2.09999 1.94565
rclavicle 2.70347e-014 -1.98785e-015
rhumerus -26.6461 -18.4954 -82.9739
rradius 29.5204
rwrist 12.04
rhand -15.867 -39.0045
rfingers 7.12502
rthumb 10.3285 -68.7309
lclavicle 2.70347e-014 -1.98785e-015
lhumerus -37.1708 15.274 78.012
lradius 16.3322
lwrist -33.211
lhand -21.4625 -17.7413
lfingers 7.12502
lthumb 4.92774 12.1814
rfemur -1.23435 2.83396 21.9766
rtibia 12.384
rfoot -22.7234 0.668993
rtoes -13.265
lfemur -52.976 -6.46111 -15.7498
ltibia 38.3538
lfoot -20.8258 6.72144
ltoes -61.8919
144
root 8.08366 16.4001 34.9902 -170.964 3.91183 177.66
lowerback 0.800936 3.42944 -5.58336
upperback 4.19559 4.85077 0.177546
thorax 3.42462 2.31804 3.39052
lowerneck -5.50534 0.740072 -3.13998
upperneck 29.2385 -2.76176 4.95949
head 10.2954 -2.05808 1.85234
rclavicle 1.14301e-014 -9.93923e-015
rhumerus -26.021 -17.3623 -83.8936
rradius 30.4841
rwrist 11.3144
rhand -15.661 -39.3334
rfingers 7.12502
rthumb 10.5272 -69.0498
lclavicle 1.14301e-014 -9.93923e-015
lhumerus -37.6487 16.1428 76.972
lradius 15.844
lwrist -34.2753
lhand -21.6654 -17.7504
lfingers 7.12502
lthumb 4.73189 12.1768
rfemur -0.593601 2.93061 22.1516
rtibia 12.3208
rfoot -22.991 0.42414
rtoes -14.3848
lfemur -53.7418 -6.53143 -15.0177
ltibia 37.0706
lfoot -20.6046 6.3752
ltoes -61.9063
145
root 8.08477 16.3817 34.8316 -171.071 4.14716 177.784
lowerback 1.10539 3.5514 -5.39801
upperback 4.22624 5.00501 0.0729334
thorax 3.29352 2.41038 3.16015
lowerneck -5.62376 0.709136 -3.02971
upperneck 29.0309 -2.68763 4.78111
head 10.2348 -2.00778 1.77821
rclavicle 2.68359e-015 1.39149e-014
rhumerus -25.4061 -16.3472 -84.7748
rradius 31.4014
rwrist 10.6796
rhand -15.3303 -39.3566
rfingers 7.12502
rthumb 10.8461 -69.0565
lclavicle 2.68359e-015 1.39149e-014
lhumerus -38.09 17.2111 75.7627
lradius 15.2748
lwrist -35.6081
lhand -22.1971 -18.5758
lfingers 7.12502
lthumb 4.21847 11.3622
rfemur 0.194372 2.95684 22.3093
rtibia 12.2411
rfoot -23.0046 0.27203
rtoes -17.1183
lfemur -54.2775 -6.38206 -14.5451
ltibia 35.5436
lfoot -19.0342 6.4782
ltoes -63.1381
146
root 8.08284 16.3543 34.6687 -170.943 4.35947 177.841
lowerback 1.14639 3.6448 -5.28595
upperback 4.23516 5.13325 -0.0483783
thorax 3.28781 2.48139 2.97117
lowerneck -5.77939 0.697171 -3.00739
upperneck 28.7062 -2.56088 4.69341
head 10.1377 -1.92358 1.75795
rclavicle 1.2424e-014 3.57812e-015
rhumerus -24.7479 -15.3882 -85.5629
rradius 32.212
rwrist 9.8444
rhand -15.2646 -39.0965
rfingers 7.12502
rthumb 10.9095 -68.7931
lclavicle 1.2424e-014 3.57812e-015
lhumerus -38.5382 18.6923 74.2781
lradius 14.5484
lwrist -37.8896
lhand -23.4247 -19.8922
lfingers 7.12502
lthumb 3.03293 10.066
rfemur 0.67395 3.04041 22.3306
rtibia 12.3406
rfoot -23.0706 0.403954
rtoes -19.3443
lfemur -55.1515 -6.2375 -14.1852
ltibia 35.0508
lfoot -18.2854 6.32517
ltoes -63.8425
147
root 8.07822 16.333 34.4915 -171.032 4.78412 177.903
lowerback 1.29404 3.77708 -5.20463
upperback 4.3213 5.31848 -0.162713
thorax 3.2963 2.58176 2.80199
lowerneck -5.73539 0.684616 -3.02719
upperneck 28.2245 -2.43567 4.65153
head 9.94576 -1.84226 1.76123
rclavicle 3.8763e-015 5.96354e-016
rhumerus -24.2213 -14.4643 -86.2448
rradius 33.0722
rwrist 9.19143
rhand -15.2772 -38.6842
rfingers 7.12502
rthumb 10.8974 -68.3815
lclavicle 3.8763e-015 5.96354e-016
lhumerus -38.7403 19.3327 73.5726
lradius 14.4853
lwrist -37.5801
lhand -22.2451 -18.5875
lfingers 7.12502
lthumb 4.17211 11.3514
rfemur 1.35178 3.36829 22.3349
rtibia 12.5375
rfoot -23.2126 0.617812
rtoes -20.1528
lfemur -55.5375 -5.88606 -13.9295
ltibia 34.9935
lfoot -18.0057 6.35966
ltoes -63.7773
148
root 8.07579 16.3167 34.3089 -171.212 5.36601 177.945
lowerback 1.54128 3.89716 -5.32554
upperback 4.43814 5.48542 -0.204772
thorax 3.26006 2.66781 2.81117
lowerneck -5.58082 0.705342 -3.22582
upperneck 27.6385 -2.24936 4.67992
head 9.6953 -1.74444 1.82594
rclavicle 3.598e-014 1.39149e-015
rhumerus -23.7355 -13.4415 -86.8141
rradius 33.9732
rwrist 8.8728
rhand -15.3479 -38.1798
rfingers 7.12502
rthumb 10.8292 -67.8806
lclavicle 3.598e-014 1.39149e-015
lhumerus -39.0247 19.98 72.9733
lradius 14.4385
lwrist -37.2935
lhand -21.6463 -17.7865
lfingers 7.12502
lthumb 4.75033 12.1402
rfemur 2.05772 3.93717 22.3451
rtibia 12.8551
rfoot -23.0628 0.46959
rtoes -21.2065
lfemur -55.584 -5.43214 -13.7486
ltibia 35.0595
lfoot -17.783 6.67998
ltoes -63.5986
149
root 8.07729 16.304 34.1271 -171.274 6.37486 178.038
lowerback 1.79713 4.19891 -5.6237
upperback 4.48018 5.88224 -0.205336
thorax 3.10066 2.86405 2.95153
lowerneck -5.5424 0.720699 -3.4704
upperneck 27.1161 -2.06923 4.72333
head 9.49294 -1.64906 1.9023
rclavicle -1.25234e-014 0
rhumerus -23.3898 -12.4574 -87.2249
rradius 34.8351
rwrist 8.4592
rhand -15.5948 -37.9562
rfingers 7.12502
rthumb 10.591 -67.6693
lclavicle -1.25234e-014 0
lhumerus -39.3152 20.5781 72.4476
lradius 14.3293
lwrist -37.3844
lhand -21.6036 -17.5319
lfingers 7.12502
lthumb 4.79151 12.394
rfemur 2.4667 4.73288 22.3326
rtibia 13.4459
rfoot -22.5416 0.771384
rtoes -21.8626
lfemur -55.52 -4.50518 -13.618
ltibia 35.4035
lfoot -17.6531 7.09466
ltoes -64.3056
150
root 8.07344 16.296 33.9374 -171.246 7.17582 178.202
lowerback 2.06831 4.54339 -5.72366
upperback 4.45935 6.32795 -0.268775
thorax 2.88501 3.09354 2.90915
lowerneck -5.45583 0.637581 -3.48235
upperneck 26.5226 -2.0666 4.78875
head 9.26605 -1.60885 1.92799
rclavicle -1.83876e-014 1.27222e-014
rhumerus -23.1423 -12.1227 -87.5587
rradius 35.4706
rwrist 8.16408
rhand -15.7615 -37.9298
rfingers 7.12502
rthumb 10.4302 -67.6511
lclavicle -1.83876e-014 1.27222e-014
lhumerus -39.4706 20.9737 71.8719
lradius 14.1097
lwrist -37.9284
lhand -21.795 -17.5253
lfingers 7.12502
lthumb 4.6067 12.4046
rfemur 2.89021 5.20039 22.328
rtibia 13.8342
rfoot -21.8131 1.43023
rtoes -22.645
lfemur -55.4814 -3.60434 -13.6576
ltibia 36.2106
lfoot -17.4243 7.16393
ltoes -63.3718
151
root 8.05266 16.2874 33.7262 -170.894 7.15738 178.277
lowerback 1.95467 4.57654 -5.57964
upperback 4.37582 6.37213 -0.382827
thorax 2.88418 3.12008 2.71909
lowerneck -5.39135 0.532232 -3.38335
upperneck 26.0248 -2.10827 4.74411
head 9.08009 -1.59551 1.89197
rclavicle -8.99501e-015 9.14409e-015
rhumerus -22.8224 -12.2029 -87.8638
rradius 35.7512
rwrist 8.22652
rhand -15.8253 -37.8595
rfingers 7.12502
rthumb 10.3687 -67.5839
lclavicle -8.99501e-015 9.14409e-015
lhumerus -39.5671 21.0755 71.4918
lradius 13.9753
lwrist -38.1194
lhand -21.9909 -17.4159
lfingers 7.12502
lthumb 4.41753 12.518
rfemur 3.23379 5.08061 22.1457
rtibia 13.9185
rfoot -21.098 1.53612
rtoes -25.7269
lfemur -55.8996 -3.64249 -13.8644
ltibia 37.4318
lfoot -16.9773 6.77982
ltoes -62.6453
152
root 8.02661 16.2971 33.4924 -170.729 7.43983 178.353
lowerback 1.96158 4.60355 -5.55716
upperback 4.31995 6.40156 -0.423808
thorax 2.82619 3.13685 2.66053
lowerneck -5.45759 0.52585 -3.36146
upperneck 25.8454 -2.00134 4.49
head 9.02297 -1.55336 1.81115
rclavicle -1.08835e-014 5.96354e-016
rhumerus -22.6729 -11.8739 -88.0922
rradius 35.9283
rwrist 8.13721
rhand -15.8164 -37.807
rfingers 7.12502
rthumb 10.3772 -67.5309
lclavicle -1.08835e-014 5.96354e-016
lhumerus -39.8403 21.5239 71.0931
lradius 13.8862
lwrist -38.2455
lhand -22.2457 -17.3959
lfingers 7.12502
lthumb 4.17148 12.543
rfemur 3.77167 5.00318 21.8559
rtibia 14.1031
rfoot -20.2163 2.00851
rtoes -28.2549
lfemur -55.6766 -3.48285 -14.1969
ltibia 38.359
lfoot -16.192 6.62487
ltoes -64.0945
153
root 8.00264 16.3166 33.2736 -170.297 7.48805 178.396
lowerback 1.94608 4.54259 -5.64087
upperback 4.21247 6.30809 -0.45586
thorax 2.72563 3.08921 2.66994
lowerneck -5.45314 0.534919 -3.36435
upperneck 25.5065 -1.86031 4.29896
head 8.89643 -1.48535 1.75985
rclavicle -1.54555e-014 2.16675e-014
rhumerus -22.5241 -11.4748 -88.2391
rradius 36.0156
rwrist 7.81324
rhand -15.766 -37.7574
rfingers 7.12502
rthumb 10.4259 -67.4789
lclavicle -1.54555e-014 2.16675e-014
lhumerus -39.9485 22.434 70.5597
lradius 13.69
lwrist -38.9343
lhand -22.6541 -17.7904
lfingers 7.12502
lthumb 3.77713 12.1559
rfemur 3.90778 4.86859 21.5318
rtibia 14.3454
rfoot -18.8529 2.62355
rtoes -29.8873
lfemur -55.876 -3.40684 -14.6421
ltibia 39.5181
lfoot -15.3678 6.45381
ltoes -63.2155
154
root 7.97714 16.3473 33.0471 -169.665 7.54532 178.454
lowerback 1.8312 4.55398 -5.71658
upperback 4.03015 6.30957 -0.537551
thorax 2.60094 3.08927 2.62758
lowerneck -5.48514 0.466212 -3.26175
upperneck 25.1615 -1.87156 4.21891
head 8.78256 -1.46641 1.71455
rclavicle -3.16565e-014 2.62396e-014
rhumerus -22.5254 -11.5766 -88.2457
rradius 36.024
rwrist 7.65205
rhand -15.6439 -37.8589
rfingers 7.12502
rthumb 10.5437 -67.5744
lclavicle -3.16565e-014 2.62396e-014
lhumerus -39.8778 22.9667 70.2186
lradius 13.5484
lwrist -39.5256
lhand -22.9274 -18.2218
lfingers 7.12502
lthumb 3.51325 11.729
rfemur 3.837 4.94512 21.2503
rtibia 14.5676
rfoot -17.1791 3.04543
rtoes -32.2096
lfemur -56.286 -3.4979 -14.9265
ltibia 40.6929
lfoot -15.84 7.38487
ltoes -64.2445
155
root 7.94661 16.4021 32.811 -169.261 7.5733 178.471
lowerback 2.01374 4.58851 -5.78818
upperback 3.93197 6.3378 -0.633303
thorax 2.39781 3.10983 2.54576
lowerneck -5.61411 0.339574 -3.16444
upperneck 24.8508 -1.97716 4.20071
head 8.70365 -1.48429 1.6828
rclavicle 1.30204e-014 -1.76918e-014
rhumerus -22.6731 -11.9322 -88.1526
rradius 36.0918
rwrist 7.731
rhand -15.4033 -38.1045
rfingers 7.12502
rthumb 10.7758 -67.8081
lclavicle 1.30204e-014 -1.76918e-014
lhumerus -39.5626 22.9946 70.2943
lradius 13.5199
lwrist -39.6444
lhand -22.9622 -18.4094
lfingers 7.12502
lthumb 3.47962 11.542
rfemur 3.95866 5.1994 20.9203
rtibia 14.8407
rfoot -15.2875 3.36216
rtoes -34.1966
lfemur -56.2883 -3.95741 -15.1088
ltibia 41.5001
lfoot -16.1218 7.96074
ltoes -64.0614
156
root 7.91397 16.4718 32.5699 -168.684 7.4033 178.401
lowerback 1.97234 4.49124 -6.0017
upperback 3.89123 6.20757 -0.670287
thorax 2.37304 3.04022 2.62836
lowerneck -5.62429 0.248202 -3.42044
upperneck 24.2593 -1.99072 4.40347
head 8.50623 -1.46071 1.79532
rclavicle -2.84262e-014 7.95139e-015
rhumerus -22.844 -12.1035 -87.9444
rradius 36.1143
rwrist 7.80086
rhand -15.2487 -38.1795
rfingers 7.12502
rthumb 10.9249 -67.8753
lclavicle -2.84262e-014 7.95139e-015
lhumerus -39.0167 22.8175 70.8562
lradius 13.6086
lwrist -39.2845
lhand -22.8914 -18.6128
lfingers 7.12502
lthumb 3.54798 11.3375
rfemur 3.83194 5.31604 20.5049
rtibia 15.1481
rfoot -12.9743 3.74011
rtoes -36.0515
lfemur -56.3352 -4.56215 -15.4283
ltibia 42.0295
lfoot -16.3239 7.77229
ltoes -63.1759
